PathFileType	4	(X/Y/Z)	 New Session 108.trc
DataRate	CameraRate	NumFrames	NumMarkers	Units	OrigDataRate	OrigDataStartFrame	OrigNumFrames
100	100	24	14	m	100	237	945
Frame#	Time	C7			T8			IJ			PX			AA			AC			AI			TS			SC			GH			LE			ME			US			RS			
		X1	Y1	Z1	X2	Y2	Z2	X3	Y3	Z3	X4	Y4	Z4	X5	Y5	Z5	X6	Y6	Z6	X7	Y7	Z7	X8	Y8	Z8	X9	Y9	Z9	X10	Y10	Z10	X11	Y11	Z11	X12	Y12	Z12	X13	Y13	Z13	X14	Y14	Z14	
237	2.3700	0.017435	0.102053	0.162436	0.008543	-0.114069	0.229829	-0.000630	0.001068	-0.003303	-0.002088	-0.140548	-0.072188	0.211418	-0.001886	0.156061	0.164504	0.043036	0.084748	0.091647	0.021613	0.206918	0.089601	-0.097030	0.236873	0.024182	0.008947	0.002323	0.224020	0.014582	0.116054	0.324070	-0.219175	-0.023782	0.235995	-0.259678	-0.061334	0.208017	0.005432	-0.104733	0.262542	0.018438	-0.052324	
238	2.3800	0.017507	0.102038	0.162345	0.008558	-0.114078	0.229817	-0.000660	0.001075	-0.003342	-0.002028	-0.140634	-0.072213	0.211643	-0.001931	0.155781	0.164410	0.042914	0.084598	0.091722	0.021613	0.206845	0.089614	-0.096999	0.236910	0.024093	0.008927	0.002166	0.224044	0.014554	0.115739	0.323628	-0.218321	-0.025834	0.235261	-0.258994	-0.062666	0.204718	0.006663	-0.099952	0.259754	0.018672	-0.047772	
239	2.3900	0.017581	0.102023	0.162266	0.008566	-0.114081	0.229805	-0.000686	0.001072	-0.003354	-0.001978	-0.140737	-0.072261	0.211871	-0.001962	0.155499	0.164249	0.042806	0.084412	0.091800	0.021610	0.206747	0.089653	-0.096952	0.236969	0.023923	0.008924	0.001914	0.224026	0.014509	0.115403	0.323155	-0.217515	-0.027838	0.234542	-0.258379	-0.063864	0.201553	0.007645	-0.095373	0.257113	0.018693	-0.043470	
240	2.4000	0.017656	0.102005	0.162200	0.008563	-0.114079	0.229796	-0.000705	0.001055	-0.003350	-0.001942	-0.140842	-0.072324	0.212070	-0.001983	0.155249	0.164055	0.042641	0.084232	0.091881	0.021611	0.206671	0.089706	-0.096901	0.237038	0.023772	0.008921	0.001709	0.223982	0.014463	0.115076	0.322647	-0.216743	-0.029772	0.233846	-0.257843	-0.064936	0.198531	0.008408	-0.091046	0.254632	0.018526	-0.039420	
241	2.4100	0.017723	0.101984	0.162142	0.008547	-0.114074	0.229789	-0.000715	0.001025	-0.003345	-0.001923	-0.140937	-0.072387	0.212226	-0.001999	0.155050	0.163966	0.042432	0.084114	0.091959	0.021616	0.206636	0.089755	-0.096859	0.237094	0.023744	0.008894	0.001703	0.223940	0.014431	0.114781	0.322097	-0.215998	-0.031608	0.233169	-0.257398	-0.065890	0.195692	0.008999	-0.087023	0.252316	0.018202	-0.035619	
242	2.4200	0.017772	0.101964	0.162093	0.008516	-0.114066	0.229788	-0.000715	0.000981	-0.003353	-0.001925	-0.141014	-0.072442	0.212340	-0.002014	0.154902	0.164026	0.042206	0.084067	0.092022	0.021625	0.206629	0.089790	-0.096825	0.237135	0.023837	0.008829	0.001876	0.223915	0.014414	0.114523	0.321505	-0.215284	-0.033322	0.232497	-0.257053	-0.066737	0.193094	0.009462	-0.083342	0.250168	0.017755	-0.032067	
243	2.4300	0.017803	0.101949	0.162054	0.008466	-0.114054	0.229792	-0.000707	0.000926	-0.003381	-0.001948	-0.141071	-0.072482	0.212428	-0.002036	0.154805	0.164056	0.041947	0.084035	0.092063	0.021632	0.206630	0.089810	-0.096797	0.237168	0.023952	0.008736	0.002083	0.223886	0.014388	0.114297	0.320892	-0.214623	-0.034895	0.231805	-0.256803	-0.067491	0.190780	0.009824	-0.080024	0.248199	0.017228	-0.028771	
244	2.4400	0.017824	0.101939	0.162024	0.008396	-0.114041	0.229801	-0.000692	0.000864	-0.003433	-0.001989	-0.141113	-0.072505	0.212497	-0.002078	0.154749	0.163968	0.041668	0.083998	0.092075	0.021629	0.206632	0.089821	-0.096770	0.237211	0.024028	0.008636	0.002207	0.223822	0.014318	0.114095	0.320270	-0.214041	-0.036306	0.231063	-0.256630	-0.068173	0.188765	0.010089	-0.077074	0.246420	0.016665	-0.025757	
245	2.4500	0.017845	0.101928	0.162002	0.008307	-0.114027	0.229817	-0.000673	0.000798	-0.003503	-0.002044	-0.141147	-0.072514	0.212550	-0.002151	0.154720	0.163866	0.041443	0.084012	0.092067	0.021612	0.206638	0.089821	-0.096743	0.237278	0.024061	0.008568	0.002183	0.223718	0.014182	0.113919	0.319634	-0.213542	-0.037546	0.230252	-0.256511	-0.068799	0.187031	0.010259	-0.074495	0.244842	0.016101	-0.023069	
246	2.4600	0.017872	0.101914	0.161987	0.008202	-0.114012	0.229838	-0.000653	0.000734	-0.003577	-0.002103	-0.141176	-0.072509	0.212591	-0.002254	0.154709	0.163869	0.041285	0.084145	0.092055	0.021583	0.206658	0.089803	-0.096719	0.237363	0.024075	0.008542	0.002042	0.223606	0.014006	0.113786	0.318983	-0.213116	-0.038616	0.229379	-0.256422	-0.069382	0.185554	0.010340	-0.072291	0.243465	0.015571	-0.020749	
247	2.4700	0.017912	0.101891	0.161975	0.008084	-0.113999	0.229867	-0.000636	0.000677	-0.003638	-0.002158	-0.141203	-0.072493	0.212620	-0.002376	0.154720	0.164012	0.041147	0.084401	0.092048	0.021548	0.206695	0.089757	-0.096704	0.237460	0.024084	0.008522	0.001912	0.223524	0.013832	0.113712	0.318330	-0.212753	-0.039526	0.228486	-0.256349	-0.069921	0.184308	0.010351	-0.070466	0.242276	0.015106	-0.018835	
248	2.4800	0.017963	0.101858	0.161966	0.007957	-0.113988	0.229902	-0.000626	0.000627	-0.003675	-0.002201	-0.141228	-0.072471	0.212631	-0.002506	0.154759	0.164237	0.041031	0.084695	0.092042	0.021508	0.206740	0.089672	-0.096704	0.237561	0.024089	0.008485	0.001870	0.223494	0.013687	0.113704	0.317701	-0.212448	-0.040297	0.227633	-0.256286	-0.070404	0.183251	0.010324	-0.069030	0.241258	0.014724	-0.017350	
249	2.4900	0.018020	0.101822	0.161963	0.007828	-0.113980	0.229942	-0.000622	0.000586	-0.003682	-0.002229	-0.141250	-0.072444	0.212625	-0.002634	0.154829	0.164414	0.040937	0.084929	0.092028	0.021461	0.206789	0.089542	-0.096724	0.237659	0.024091	0.008439	0.001903	0.223515	0.013577	0.113761	0.317119	-0.212198	-0.040948	0.226871	-0.256233	-0.070812	0.182331	0.010301	-0.067996	0.240394	0.014438	-0.016303	
250	2.5000	0.018072	0.101789	0.161969	0.007698	-0.113973	0.229987	-0.000625	0.000552	-0.003661	-0.002237	-0.141272	-0.072415	0.212611	-0.002749	0.154927	0.164457	0.040854	0.085031	0.091997	0.021405	0.206836	0.089374	-0.096768	0.237747	0.024091	0.008398	0.001965	0.223569	0.013488	0.113881	0.316595	-0.212005	-0.041487	0.226218	-0.256190	-0.071130	0.181501	0.010295	-0.067364	0.239673	0.014253	-0.015685	
251	2.5100	0.018113	0.101767	0.161982	0.007573	-0.113968	0.230034	-0.000631	0.000523	-0.003622	-0.002227	-0.141295	-0.072384	0.212592	-0.002846	0.155039	0.164359	0.040785	0.084979	0.091950	0.021347	0.206883	0.089185	-0.096823	0.237832	0.024093	0.008361	0.002026	0.223625	0.013394	0.114042	0.316139	-0.211870	-0.041917	0.225673	-0.256161	-0.071345	0.180747	0.010260	-0.067073	0.239076	0.014166	-0.015460	
252	2.5200	0.018141	0.101759	0.162001	0.007455	-0.113963	0.230081	-0.000636	0.000499	-0.003573	-0.002198	-0.141320	-0.072348	0.212564	-0.002929	0.155156	0.164290	0.040731	0.084954	0.091893	0.021295	0.206932	0.089004	-0.096872	0.237950	0.024100	0.008319	0.002081	0.223658	0.013281	0.114207	0.315759	-0.211786	-0.042247	0.225217	-0.256156	-0.071453	0.180077	0.010146	-0.067045	0.238580	0.014162	-0.015561	
253	2.5300	0.018156	0.101760	0.162019	0.007348	-0.113956	0.230125	-0.000633	0.000478	-0.003525	-0.002155	-0.141348	-0.072306	0.212527	-0.002999	0.155273	0.164363	0.040688	0.085090	0.091833	0.021253	0.206986	0.088848	-0.096895	0.238147	0.024112	0.008272	0.002131	0.223676	0.013174	0.114353	0.315437	-0.211737	-0.042493	0.224830	-0.256189	-0.071458	0.179498	0.009958	-0.067220	0.238166	0.014218	-0.015915	
254	2.5400	0.018158	0.101763	0.162034	0.007255	-0.113947	0.230166	-0.000621	0.000460	-0.003486	-0.002102	-0.141377	-0.072257	0.212484	-0.003054	0.155395	0.164496	0.040670	0.085290	0.091777	0.021227	0.207042	0.088721	-0.096891	0.238432	0.024126	0.008229	0.002180	0.223694	0.013094	0.114479	0.315144	-0.211711	-0.042669	0.224496	-0.256270	-0.071371	0.179007	0.009753	-0.067566	0.237818	0.014307	-0.016454	
255	2.5500	0.018145	0.101769	0.162042	0.007177	-0.113935	0.230202	-0.000598	0.000443	-0.003461	-0.002047	-0.141408	-0.072204	0.212436	-0.003089	0.155519	0.164556	0.040686	0.085402	0.091730	0.021220	0.207094	0.088615	-0.096874	0.238750	0.024144	0.008194	0.002224	0.223709	0.013045	0.114590	0.314860	-0.211701	-0.042787	0.224212	-0.256406	-0.071210	0.178594	0.009584	-0.068063	0.237526	0.014404	-0.017126	
256	2.5600	0.018125	0.101777	0.162042	0.007116	-0.113921	0.230233	-0.000566	0.000427	-0.003452	-0.001997	-0.141442	-0.072150	0.212388	-0.003104	0.155623	0.164551	0.040720	0.085437	0.091690	0.021229	0.207136	0.088520	-0.096859	0.239008	0.024170	0.008166	0.002253	0.223715	0.013018	0.114679	0.314592	-0.211714	-0.042855	0.223981	-0.256602	-0.070995	0.178250	0.009437	-0.068661	0.237285	0.014490	-0.017889	
257	2.5700	0.018100	0.101791	0.162034	0.007071	-0.113902	0.230257	-0.000531	0.000409	-0.003457	-0.001959	-0.141481	-0.072096	0.212352	-0.003105	0.155684	0.164496	0.040759	0.085396	0.091659	0.021248	0.207158	0.088437	-0.096856	0.239121	0.024201	0.008141	0.002259	0.223708	0.013005	0.114732	0.314365	-0.211755	-0.042875	0.223809	-0.256859	-0.070742	0.177969	0.009276	-0.069316	0.237091	0.014558	-0.018708	
258	2.5800	0.018078	0.101807	0.162019	0.007041	-0.113879	0.230275	-0.000499	0.000388	-0.003475	-0.001935	-0.141527	-0.072046	0.212339	-0.003094	0.155694	0.164406	0.040789	0.085286	0.091643	0.021273	0.207151	0.088376	-0.096856	0.239075	0.024225	0.008120	0.002250	0.223699	0.012997	0.114740	0.314198	-0.211829	-0.042846	0.223697	-0.257170	-0.070466	0.177743	0.009082	-0.070011	0.236936	0.014607	-0.019556	
259	2.5900	0.018068	0.101822	0.161994	0.007024	-0.113850	0.230288	-0.000474	0.000365	-0.003499	-0.001925	-0.141581	-0.072000	0.212345	-0.003075	0.155657	0.164318	0.040799	0.085143	0.091646	0.021305	0.207119	0.088344	-0.096843	0.238932	0.024238	0.008097	0.002243	0.223696	0.012993	0.114708	0.314099	-0.211933	-0.042769	0.223642	-0.257521	-0.070177	0.177563	0.008861	-0.070747	0.236808	0.014641	-0.020414	
260	2.6000	0.018070	0.101833	0.161959	0.007016	-0.113816	0.230296	-0.000460	0.000337	-0.003523	-0.001925	-0.141643	-0.071959	0.212363	-0.003043	0.155589	0.164252	0.040793	0.084995	0.091663	0.021346	0.207076	0.088342	-0.096808	0.238770	0.024250	0.008069	0.002238	0.223703	0.012997	0.114648	0.314066	-0.212059	-0.042646	0.223635	-0.257886	-0.069884	0.177407	0.008612	-0.071497	0.236697	0.014658	-0.021268	
